<svg version="1.1" xmlns="http://www.w3.org/2000/svg" xmlns:xlink="http://www.w3.org/1999/xlink" x="0px" y="0px" viewBox="0 0 1000 1000" enable-background="new 0 0 1000 1000" xml:space="preserve">
  <g><path d="M710,619.5c-8-7.9-18.9-12.2-29.4-13.1c-21.7-1.8-43.6-10-60.2-26.2c-16.6-16.4-25.5-37.6-26.6-59.1c-0.5-10.5-5.3-20.8-13.3-28.9c-17.8-17.7-47.1-17.7-64.9,0l-28.5,28L191.6,237.2c0,0-14.3-11.7-16.4-22.4c-2.4-12.8-4.5-29.2-18.4-41.1c-25.2-21.5-67.4-54.9-93.6-73.3c-11-7.7-18.7-6.1-26.4,1.6l-20.1,19.8c-7.7,7.5-9.4,15-1.6,25.9c18.5,25.7,52.7,67.2,74.5,91.9c12.1,13.6,28.9,15.6,41.8,18c10.8,2.1,22.7,16.1,22.7,16.1l288.1,290.2l-28.5,28c-18,17.7-18,46.2,0,63.9c8.2,8.1,18.7,12.6,29.4,13.1c21.9,1,43.6,9.8,60.2,26.1c16.6,16.3,24.8,37.8,26.6,59.1c0.9,10.3,5.2,21,13.3,28.9L727,963.5c35.9,35.3,94.1,35.3,130,0l36.6-36c35.9-35.3,35.9-92.4,0-127.7L710,619.5L710,619.5z"></path><path d="M989.4,202.6l-172.2,92.9l-78.4-46.7l1.9-89.9l178.3-96.2c-82.9-72.8-210.5-70-290.1,8.2c-50.9,50-70.3,119.1-58.6,183.7c2.8,15.2-1,31.1-14,43.9L436.6,416.6l50.2,48.1l0.4-0.4c16.3-15.9,38-24.8,61.1-24.8c23.1,0,44.8,8.7,61.1,24.8c7.9,7.9,14.2,17,18.4,26.9l58.3-57.2c13.1-12.9,31.8-17.3,48.5-13.1c67.2,16.8,141.2-4.4,193.8-56.2C973.3,320.2,993.8,260.7,989.4,202.6L989.4,202.6z"></path><path d="M385.3,564l0.4-0.3l-48.8-49.2L49.1,797.1c-36.9,36.2-36.9,94.8,0,131c36.9,36.2,96.6,36.2,133.5,0L413,701.9c-10-4.2-19.4-10.3-27.3-18.2C351.7,650.8,351.7,597.1,385.3,564L385.3,564z"></path></g>
</svg>
