<svg xmlns="http://www.w3.org/2000/svg" width="26" height="26" viewBox="0 0 26 26">
  <path fill="#f0f0f0" d="M 11 -0.03125 C 10.164156 -0.03125 9.343691 0.13412644 8.75 0.71875 C 8.156309 1.3033736 7.96875 2.138489 7.96875 3 L 4 3 C 3.449 3 3 3.449 3 4 L 2 4 L 2 6 L 24 6 L 24 4 L 23 4 C 23 3.449 22.551 3 22 3 L 18.03125 3 C 18.03125 2.138489 17.843691 1.3033736 17.25 0.71875 C 16.656309 0.13412644 15.835844 -0.03125 15 -0.03125 L 11 -0.03125 z M 11 2.03125 L 15 2.03125 C 15.545156 2.03125 15.720191 2.1586236 15.78125 2.21875 C 15.84231 2.278876 15.96875 2.440511 15.96875 3 L 10.03125 3 C 10.03125 2.440511 10.157691 2.2788764 10.21875 2.21875 C 10.27981 2.158624 10.454844 2.03125 11 2.03125 z M 4 7 L 4 23 C 4 24.654 5.346 26 7 26 L 19 26 C 20.654 26 22 24.654 22 23 L 22 7 L 4 7 z M 8 10 L 10 10 L 10 22 L 8 22 L 8 10 z M 12 10 L 14 10 L 14 22 L 12 22 L 12 10 z M 16 10 L 18 10 L 18 22 L 16 22 L 16 10 z" />
</svg>
