<?xml version="1.0" encoding="UTF-8" standalone="no"?>
<svg width="99px" height="64px" viewBox="0 0 99 64" version="1.1" xmlns="http://www.w3.org/2000/svg" xmlns:xlink="http://www.w3.org/1999/xlink">
    <g>
        <path d="M84.21875,1 L68.21875,9.375 L68.21875,24.8125 L81.21875,18.5625 L81.21875,63 L98.84375,63 L98.84375,1 L84.21875,1 Z M32.03125,0.1875 C30.4895756,0.1875 28.9687575,0.291665625 27.46875,0.5 C25.9687425,0.708334375 24.5104237,1.02083125 23.09375,1.4375 L23.09375,19.25 C24.3854231,18.249995 25.8124922,17.4687528 27.375,16.90625 C28.9375078,16.3437472 30.4895756,16.0625 32.03125,16.0625 C34.2395944,16.0625 36.3124903,16.4895791 38.25,17.34375 C40.1875097,18.1979209 41.8854094,19.3437428 43.34375,20.78125 C44.8020906,22.2187572 45.9479125,23.9062403 46.78125,25.84375 C47.6145875,27.7812597 48.03125,29.8333225 48.03125,32 C48.03125,34.2083444 47.6145875,36.2812403 46.78125,38.21875 C45.9479125,40.1562597 44.8125072,41.8437428 43.375,43.28125 C41.9374928,44.7187572 40.2395931,45.8541625 38.28125,46.6875 C36.3229069,47.5208375 34.2395944,47.9375 32.03125,47.9375 C29.8229056,47.9375 27.7500097,47.5208375 25.8125,46.6875 C23.8749903,45.8541625 22.1979237,44.7083406 20.78125,43.25 C18.9479075,41.4583244 17.69792,39.3854284 17.03125,37.03125 C16.36458,34.6770716 16.03125,31.5208531 16.03125,27.5625 L16.03125,4.4375 C13.6562381,5.81250687 11.4895931,7.46874031 9.53125,9.40625 C7.57290688,11.3437597 5.88542375,13.4999881 4.46875,15.875 C3.05207625,18.2500119 1.96875375,20.7916531 1.21875,23.5 C0.46874625,26.2083469 0.09375,29.0416519 0.09375,32 C0.09375,36.4166887 0.927075,40.5624806 2.59375,44.4375 C4.260425,48.3125194 6.54165219,51.6874856 9.4375,54.5625 C12.3333478,57.4375144 15.7187306,59.708325 19.59375,61.375 C23.4687694,63.041675 27.6145613,63.875 32.03125,63.875 C36.4479387,63.875 40.5937306,63.041675 44.46875,61.375 C48.3437694,59.708325 51.7291522,57.4375144 54.625,54.5625 C57.5208478,51.6874856 59.802075,48.3125194 61.46875,44.4375 C63.135425,40.5624806 63.96875,36.4166887 63.96875,32 C63.96875,27.6249781 63.135425,23.5000194 61.46875,19.625 C59.802075,15.7499806 57.5208478,12.3750144 54.625,9.5 C51.7291522,6.62498563 48.3437694,4.354175 44.46875,2.6875 C40.5937306,1.020825 36.4479387,0.1875 32.03125,0.1875 L32.03125,0.1875 Z M29.15625,40.75 C29.4479181,40.75 29.7187488,40.7083338 29.96875,40.625 C30.2187512,40.5416663 30.4687487,40.4375006 30.71875,40.3125 L39.53125,34.1875 C39.9062519,33.9374988 40.1874991,33.6145853 40.375,33.21875 C40.5625009,32.8229147 40.65625,32.4166687 40.65625,32 C40.65625,31.5833313 40.5625009,31.1875019 40.375,30.8125 C40.1874991,30.4374981 39.9062519,30.1250012 39.53125,29.875 L30.71875,23.75 C30.3020813,23.4583319 29.8437525,23.3020834 29.34375,23.28125 C28.8437475,23.2604166 28.3854187,23.3541656 27.96875,23.5625 C27.5104144,23.8125012 27.1562513,24.1458313 26.90625,24.5625 C26.6562488,24.9791687 26.53125,25.4374975 26.53125,25.9375 L26.53125,38.1875 C26.53125,38.6875025 26.6562488,39.1458313 26.90625,39.5625 C27.1562513,39.9791687 27.5104144,40.3124988 27.96875,40.5625 C28.1354175,40.6041669 28.3229156,40.6458331 28.53125,40.6875 C28.7395844,40.7291669 28.9479156,40.75 29.15625,40.75 L29.15625,40.75 Z" fill="#000000"></path>
    </g>
</svg>
