<?xml version="1.0" encoding="UTF-8" standalone="no"?>
<!-- Created with Inkscape (http://www.inkscape.org/) -->
<svg xmlns:dc="http://purl.org/dc/elements/1.1/" xmlns:cc="http://creativecommons.org/ns#" xmlns:rdf="http://www.w3.org/1999/02/22-rdf-syntax-ns#" xmlns:svg="http://www.w3.org/2000/svg" xmlns="http://www.w3.org/2000/svg" xmlns:sodipodi="http://sodipodi.sourceforge.net/DTD/sodipodi-0.dtd" xmlns:inkscape="http://www.inkscape.org/namespaces/inkscape" id="svg2" version="1.1" inkscape:version="0.48+devel r12701" width="345.21127" height="412.3822" viewBox="0 0 345.21127 412.3822" sodipodi:docname="money_bag_black.svg">
  <title id="title4066">money bag BW</title>
  <metadata id="metadata8">
    <rdf:RDF>
      <cc:Work rdf:about="">
        <dc:format>image/svg+xml</dc:format>
        <dc:type rdf:resource="http://purl.org/dc/dcmitype/StillImage"/>
        <dc:title>money bag BW</dc:title>
        <dc:date>12/08/2013</dc:date>
        <dc:creator>
          <cc:Agent>
            <dc:title>edited by Paul Sherman</dc:title>
          </cc:Agent>
        </dc:creator>
        <dc:rights>
          <cc:Agent>
            <dc:title>PD</dc:title>
          </cc:Agent>
        </dc:rights>
        <dc:publisher>
          <cc:Agent>
            <dc:title>WPClipart</dc:title>
          </cc:Agent>
        </dc:publisher>
        <dc:subject>
          <rdf:Bag>
            <rdf:li>money</rdf:li>
            <rdf:li>bag</rdf:li>
          </rdf:Bag>
        </dc:subject>
        <cc:license rdf:resource="http://creativecommons.org/publicdomain/zero/1.0/"/>
      </cc:Work>
      <cc:License rdf:about="http://creativecommons.org/publicdomain/zero/1.0/">
        <cc:permits rdf:resource="http://creativecommons.org/ns#Reproduction"/>
        <cc:permits rdf:resource="http://creativecommons.org/ns#Distribution"/>
        <cc:permits rdf:resource="http://creativecommons.org/ns#DerivativeWorks"/>
      </cc:License>
    </rdf:RDF>
  </metadata>
  <defs id="defs6"/>
  <sodipodi:namedview pagecolor="#ffffff" bordercolor="#666666" borderopacity="1" objecttolerance="10" gridtolerance="10" guidetolerance="10" inkscape:pageopacity="0" inkscape:pageshadow="2" inkscape:window-width="1037" inkscape:window-height="902" id="namedview4" showgrid="false" fit-margin-top="4" fit-margin-left="4" fit-margin-right="4" fit-margin-bottom="4" inkscape:zoom="0.53789174" inkscape:cx="-151.97158" inkscape:cy="205.65284" inkscape:window-x="0" inkscape:window-y="0" inkscape:window-maximized="0" inkscape:current-layer="svg2"/>
  <rect style="fill:#ffffff;fill-opacity:1;stroke:none" id="rect4087" width="184.05191" height="234.24788" x="78.082626" y="140.95212"/>
  <path style="fill:#000000" d="M 136.84991,407.20234 C 56.422601,399.5947 13.263794,362.85369 4.8773288,294.85435 3.1623375,280.94882 4.0630763,251.86422 6.6967925,236.10435 13.53379,195.19249 29.382995,163.12135 56.16262,136.00937 67.507208,124.524 83.659471,111.56802 93.974028,105.68026 c 2.6024,-1.4855 4.733825,-2.98216 4.736499,-3.32591 C 98.713202,102.0106 85.217534,87.109447 68.720152,69.240677 52.222773,51.371907 38.724915,35.952576 38.724915,34.975499 c 0,-3.469444 6.16273,-12.219823 10.858469,-15.417798 12.709896,-8.655918 26.642627,-7.760722 41.641531,2.675525 18.409855,12.809584 23.656535,12.230308 46.448065,-5.128241 23.00511,-17.52122625 30.9891,-17.4907615 51.67693,0.197185 4.8125,4.114653 11.48898,8.975037 14.83662,10.800852 5.33518,2.909841 7.08103,3.239842 14.14175,2.673076 6.29917,-0.505638 9.46843,-1.550865 14.53838,-4.794771 3.56579,-2.2815 10.1395,-6.039705 14.60825,-8.351568 9.48084,-4.904817 14.85827,-4.800031 25.92357,0.505155 5.73031,2.747365 15.32643,12.003114 15.32643,14.782812 0,0.511995 -13.64062,14.984362 -30.3125,32.160815 -16.67187,17.176454 -30.45879,31.622889 -30.63761,32.103189 -0.17881,0.480302 4.9465,3.85637 11.38958,7.50238 70.25263,39.75459 110.11222,116.2848 100.67483,193.29524 -8.09308,66.04089 -54.3162,102.01076 -140.4893,109.32587 -17.3871,1.47598 -46.31188,1.42835 -62.5,-0.10287 z m 49.375,-56.56035 0,-5.46238 7.1875,-1.44366 c 22.65766,-4.55095 36.16523,-16.12051 41.04103,-35.15264 4.33006,-16.90186 0.40362,-31.60782 -11.23245,-42.06965 -6.24305,-5.61304 -21.98217,-13.93877 -31.68358,-16.76007 l -5.3125,-1.54497 0,-22.2712 0,-22.2712 3.13349,1.19135 c 9.11829,3.46678 16.8616,10.28334 19.46763,17.13772 0.651,1.71226 1.87893,2.86302 2.72876,2.55726 0.84981,-0.30576 6.74552,-1.89723 13.10156,-3.53658 13.02476,-3.35935 12.89034,-3.0908 6.83878,-13.66162 -7.82834,-13.67453 -22.23481,-24.77853 -38.08272,-29.35281 l -7.1875,-2.07459 0,-9.2863 0,-9.2863 -13.69523,0 -13.69524,0 -0.36726,9.06101 -0.36727,9.06101 -6.93674,0.86272 c -14.44125,1.79603 -28.33189,9.18535 -34.19997,18.19315 -7.86632,12.0752 -9.02063,30.46287 -2.7207,43.33948 5.59673,11.43929 19.35953,22.04659 36.66991,28.26233 l 7.8125,2.80527 0,23.58252 c 0,12.97038 -0.30918,23.58251 -0.68707,23.58251 -0.37789,0 -2.48726,-0.91654 -4.6875,-2.03674 -8.17941,-4.1644 -15.54494,-10.54061 -21.42015,-18.54311 l -6.04566,-8.23465 -3.2673,2.14387 c -1.79703,1.17914 -6.51345,4.0789 -10.48097,6.44393 -3.9675,2.36502 -7.52383,4.80194 -7.90295,5.41536 -1.0586,1.71285 9.58224,15.86401 17.78253,23.64885 8.76974,8.32545 16.98349,13.32703 27.95907,17.02506 l 8.125,2.73758 0.38099,5.69992 0.38099,5.69993 13.68151,0 13.68151,0 0,-5.46236 z m 0,-53.73815 0,-20.76302 6.5625,2.5804 c 15.9176,6.25883 20.27577,13.96433 14.56744,25.75614 -2.80528,5.79496 -9.94252,10.952 -17.1532,12.39414 l -3.97674,0.79535 0,-20.76301 z m -35,-60.11767 c -3.09375,-1.62348 -7.3125,-4.72797 -9.375,-6.89888 -3.20381,-3.3722 -3.75,-4.91738 -3.75,-10.60879 0,-4.89243 0.66397,-7.40739 2.5,-9.46945 2.9593,-3.32361 11.33967,-7.38848 15.3125,-7.42725 2.79289,-0.0273 2.8125,0.10325 2.8125,18.72255 0,10.3125 -0.42187,18.72381 -0.9375,18.6918 -0.51562,-0.032 -3.46875,-1.3865 -6.5625,-3.00998 z" id="path4062" inkscape:connector-curvature="0"/>
  <path style="fill:#000000" d="M 136.84991,407.20234 C 56.422601,399.5947 13.263794,362.85369 4.8773287,294.85435 3.1623367,280.94882 4.0630757,251.86423 6.6967917,236.10435 13.53379,195.19249 29.382995,163.12135 56.16262,136.00937 67.507205,124.524 83.659475,111.56802 93.974025,105.68026 c 2.6024,-1.4855 4.73383,-2.98216 4.7365,-3.32591 0.003,-0.34375 -13.49299,-15.244903 -29.99037,-33.113674 -16.497382,-17.868769 -29.99524,-33.2881 -29.99524,-34.265177 0,-3.469444 6.16273,-12.219823 10.858469,-15.417798 12.709896,-8.655918 26.642631,-7.760722 41.641531,2.675526 18.409845,12.809583 23.656535,12.230307 46.448055,-5.128242 23.00512,-17.52122601 30.9891,-17.49076101 51.67694,0.197185 4.8125,4.114653 11.48897,8.975037 14.83661,10.800852 5.33519,2.909841 7.08104,3.239842 14.14175,2.673076 6.29918,-0.505638 9.46844,-1.550865 14.53839,-4.794771 3.56579,-2.2815 10.1395,-6.039705 14.60825,-8.351568 9.48084,-4.904817 14.85826,-4.800031 25.92356,0.505155 5.73032,2.747365 15.32644,12.003114 15.32644,14.782813 0,0.511994 -13.64063,14.984361 -30.3125,32.160814 -16.67188,17.176454 -30.4588,31.622888 -30.63761,32.103188 -0.17881,0.4803 4.9465,3.856371 11.38957,7.502381 70.25264,39.75459 110.11223,116.2848 100.67484,193.29524 -8.09309,66.04089 -54.3162,102.01076 -140.4893,109.32587 -17.3871,1.47598 -46.31189,1.42835 -62.5,-0.10287 z m 49.375,-56.56035 0,-5.46238 7.1875,-1.44366 c 22.65765,-4.55095 36.16522,-16.12051 41.04102,-35.15264 4.33007,-16.90186 0.40363,-31.60782 -11.23244,-42.06965 -6.24306,-5.61303 -21.98218,-13.93877 -31.68358,-16.76007 l -5.3125,-1.54496 0,-22.27121 0,-22.27119 3.13349,1.19135 c 9.11828,3.46677 16.8616,10.28333 19.46762,17.13771 0.651,1.71226 1.87894,2.86302 2.72876,2.55726 0.84982,-0.30576 6.74553,-1.89722 13.10157,-3.53657 13.02476,-3.35936 12.89033,-3.0908 6.83877,-13.66163 -7.82834,-13.67453 -22.23481,-24.77853 -38.08271,-29.35281 l -7.1875,-2.07459 0,-9.2863 0,-9.2863 -13.69524,0 -13.69523,0 -0.36727,9.06101 -0.36726,9.06101 -6.93675,0.86272 c -14.44125,1.79603 -28.33189,9.18535 -34.19996,18.19315 -7.86633,12.0752 -9.02064,30.46287 -2.7207,43.33949 5.59672,11.43928 19.35952,22.04658 36.66991,28.26232 l 7.8125,2.80528 0,23.58251 c 0,12.97038 -0.30919,23.58251 -0.68708,23.58251 -0.37788,0 -2.48726,-0.91654 -4.6875,-2.03674 -8.17941,-4.1644 -15.54493,-10.54061 -21.42015,-18.54311 l -6.04566,-8.23465 -3.2673,2.14388 c -1.79702,1.17913 -6.51345,4.07889 -10.48096,6.44392 -3.9675,2.36502 -7.52384,4.80194 -7.90295,5.41536 -1.0586,1.71285 9.58224,15.86402 17.78252,23.64885 8.76974,8.32545 16.98349,13.32703 27.95908,17.02506 l 8.125,2.73758 0.38099,5.69992 0.38098,5.69993 13.68152,0 13.68151,0 0,-5.46236 z m 0,-53.73815 0,-20.76302 6.5625,2.5804 c 15.9176,6.25883 20.27576,13.96433 14.56744,25.75614 -2.80529,5.79497 -9.94253,10.952 -17.1532,12.39414 l -3.97674,0.79535 0,-20.76301 z m -35,-60.11767 c -3.09375,-1.62348 -7.3125,-4.72797 -9.375,-6.89888 -3.20381,-3.3722 -3.75,-4.91738 -3.75,-10.60879 0,-4.89243 0.66396,-7.40739 2.5,-9.46945 2.9593,-3.32361 11.33966,-7.38848 15.3125,-7.42725 2.79289,-0.0272 2.8125,0.10325 2.8125,18.72255 0,10.3125 -0.42188,18.72381 -0.9375,18.6918 -0.51563,-0.032 -3.46875,-1.3865 -6.5625,-3.00998 z" id="path4064" inkscape:connector-curvature="0"/>
</svg>