<svg xmlns="http://www.w3.org/2000/svg" xmlns:xlink="http://www.w3.org/1999/xlink" width="768" height="576" version="1"><defs><linearGradient id="a"><stop offset="0"/><stop offset="1" stop-color="#fff"/></linearGradient><clipPath id="c"><path d="M-269.067 750.225a260 260 0 1 1-520 0 260 260 0 1 1 520 0z" fill="#fff" stroke-width=".3" stroke-linecap="round"/></clipPath><linearGradient id="b" x1="173.249" y1="380.6" gradientTransform="matrix(.881 0 0 .7115 191.258 110.838)" x2="176.636" gradientUnits="userSpaceOnUse" spreadMethod="reflect" xlink:href="#a" y2="380.6"/><linearGradient id="d" x1="385.618" y1="363.167" gradientTransform="matrix(.881 0 0 .7115 -721.81 583.063)" x2="386.759" gradientUnits="userSpaceOnUse" spreadMethod="reflect" xlink:href="#a" y2="363.167"/><linearGradient id="e" x1="172" y1="380.6" gradientTransform="matrix(1.0793 0 0 .888 -101.412 413.853)" x2="181.372" gradientUnits="userSpaceOnUse" spreadMethod="reflect" xlink:href="#a" y2="380.6"/><linearGradient id="f" x1="172" y1="380.6" gradientTransform="matrix(.8722 0 0 .888 -799.493 510.81)" x2="176.636" gradientUnits="userSpaceOnUse" spreadMethod="reflect" xlink:href="#a" y2="380.6"/><linearGradient id="g" x1="173.249" y1="380.6" gradientTransform="matrix(.881 0 0 .7115 -721.81 583.063)" x2="176.636" gradientUnits="userSpaceOnUse" spreadMethod="reflect" xlink:href="#a" y2="380.6"/><linearGradient id="h" x1="279.346" y1="355.341" gradientTransform="matrix(.881 0 0 .7115 -721.81 583.063)" x2="277.073" gradientUnits="userSpaceOnUse" spreadMethod="reflect" xlink:href="#a" y2="355.341"/></defs><path fill="url(#b)" d="M342.8 361.3h91.6V402h-91.6z"/><path fill="#fff" d="M0 0h768v576H0z"/><path d="M20 0h40v7H20zm688 0h40v7h-40zm-86 0h40v7h-40zm-86 0h40v7h-40zm-86 0h40v7h-40zm-86 0h40v7h-40zm-86 0h40v7h-40zm-86 0h40v7h-40zm-86 0h40v7h-40zM20 569h40v7H20zm688 0h40v7h-40zm-86 0h40v7h-40zm-86 0h40v7h-40zm-86 0h40v7h-40zm-86 0h40v7h-40zm-86 0h40v7h-40zm-86 0h40v7h-40zm-86 0h40v7h-40zM0 10h17v40H0zm0 516h17v40H0zm0-86h17v40H0zm0-86h17v40H0zm0-86h17v40H0zm0-86h17v40H0zm0-86h17v40H0zm751-86h17v40h-17zm0 516h17v40h-17zm0-86h17v40h-17zm0-86h17v40h-17zm0-86h17v40h-17zm0-86h17v40h-17zm0-86h17v40h-17z"/><path fill="gray" d="M20 10h40v40H20zm688 0h40v40h-40zm-43 0h40v40h-40zm-43 0h40v40h-40zm-43 0h40v40h-40zm-43 0h40v40h-40zm-43 0h40v40h-40zm-43 0h40v40h-40zm-43 0h40v40h-40zm-43 0h40v40h-40zm-43 0h40v40h-40zm-43 0h40v40h-40zm-43 0h40v40h-40zm-43 0h40v40h-40zm-43 0h40v40h-40zm-43 0h40v40h-40zm-43 0h40v40H63zm387 43h40v40h-40zm258 430h40v40h-40zm-473 0h40v40h-40zm258-43h40v40h-40zm-473 0h40v40H20zm258-43h40v40h-40zm258-43h40v40h-40zm-215-43h40v40h-40zm258-43h40v40h-40zm-473 0h40v40h-40zm258-43h40v40h-40zm258-43h40v40h-40zm-473 0h40v40h-40zm258-43h40v40h-40zM192 96h40v40h-40zm215-43h40v40h-40zM192 483h40v40h-40zm258-43h40v40h-40zm258-43h40v40h-40zm-473 0h40v40h-40zm258-43h40v40h-40zm-473 0h40v40H20zm258-43h40v40h-40zm258-43h40v40h-40zm-215-43h40v40h-40zm258-43h40v40h-40zm-473 0h40v40h-40zm258-43h40v40h-40zM149 96h40v40h-40zm215-43h40v40h-40zM149 483h40v40h-40zm258-43h40v40h-40zm-215-43h40v40h-40zm258-43h40v40h-40zm258-43h40v40h-40zm-473 0h40v40h-40zm258-43h40v40h-40zm-473 0h40v40H20zm258-43h40v40h-40zm258-43h40v40h-40zm-215-43h40v40h-40zm258-43h40v40h-40zM321 53h40v40h-40zm258 430h40v40h-40zm-215-43h40v40h-40zm258-43h40v40h-40zm-473 0h40v40h-40zm258-43h40v40h-40zm-215-43h40v40h-40zm258-43h40v40h-40zm258-43h40v40h-40zm-473 0h40v40h-40zm258-43h40v40h-40zm-473 0h40v40H20zm258-43h40v40h-40zm258-43h40v40h-40zM278 53h40v40h-40zm258 430h40v40h-40zm-215-43h40v40h-40zm258-43h40v40h-40zm-473 0h40v40h-40zm258-43h40v40h-40zm258-43h40v40h-40zm-473 0h40v40h-40zm258-43h40v40h-40zm-215-43h40v40h-40zm258-43h40v40h-40zm258-43h40v40h-40zm-473 0h40v40h-40zm258-43h40v40h-40zM20 96h40v40H20zm215-43h40v40h-40zm258 430h40v40h-40zm-473 0h40v40H20zm258-43h40v40h-40zm258-43h40v40h-40zm-215-43h40v40h-40zm258-43h40v40h-40zm-473 0h40v40h-40zm258-43h40v40h-40zm258-43h40v40h-40zm-473 0h40v40h-40zm258-43h40v40h-40zm-215-43h40v40h-40zm258-43h40v40h-40zm258-43h40v40h-40zm-516 0h40v40h-40zm258 430h40v40h-40zm258-43h40v40h-40zm-473 0h40v40h-40zm258-43h40v40h-40zm-473 0h40v40H20zm258-43h40v40h-40zm258-43h40v40h-40zm-215-43h40v40h-40zm258-43h40v40h-40zm-473 0h40v40h-40zm258-43h40v40h-40zm258-43h40v40h-40zm-473 0h40v40h-40zm258-43h40v40h-40zM149 53h40v40h-40zm258 430h40v40h-40zm-215-43h40v40h-40zm258-43h40v40h-40zm258-43h40v40h-40zm-473 0h40v40h-40zm258-43h40v40h-40zm-473 0h40v40H20zm258-43h40v40h-40zm258-43h40v40h-40zm-215-43h40v40h-40zm258-43h40v40h-40zm-473 0h40v40h-40zm258-43h40v40h-40zm0 387h40v40h-40zm-215-43h40v40h-40zm258-43h40v40h-40zm-215-43h40v40h-40zm258-43h40v40h-40zm258-43h40v40h-40zm-473 0h40v40h-40zm258-43h40v40h-40zm-473 0h40v40H20zm258-43h40v40h-40zm258-43h40v40h-40zM321 96h40v40h-40zm258-43h40v40h-40zM321 483h40v40h-40zm258-43h40v40h-40zm-215-43h40v40h-40zm258-43h40v40h-40zm-473 0h40v40h-40zm258-43h40v40h-40zm-215-43h40v40h-40zm258-43h40v40h-40zm258-43h40v40h-40zm-473 0h40v40h-40zm258-43h40v40h-40zm-473 0h40v40H20zm258-43h40v40h-40zm258-43h40v40h-40zM20 53h40v40H20zm258 430h40v40h-40zm258-43h40v40h-40zm-215-43h40v40h-40zm258-43h40v40h-40zm-473 0h40v40h-40zm258-43h40v40h-40zm258-43h40v40h-40zm-473 0h40v40h-40zm258-43h40v40h-40zm-215-43h40v40h-40zm258-43h40v40h-40zm258-43h40v40h-40zm-473 0h40v40h-40zm258-43h40v40h-40zM20 526h40v40H20zm688 0h40v40h-40zm-43 0h40v40h-40zm-43 0h40v40h-40zm-43 0h40v40h-40zm-43 0h40v40h-40zm-43 0h40v40h-40zm-43 0h40v40h-40zm-43 0h40v40h-40zm-43 0h40v40h-40zm-43 0h40v40h-40zm-43 0h40v40h-40zm-43 0h40v40h-40zm-43 0h40v40h-40zm-43 0h40v40h-40zm-43 0h40v40h-40zm-43 0h40v40H63z"/><path fill="#369d7a" d="M63 53h40v235H63z"/><path fill="#507ae9" d="M103 53h43v83h-43z"/><path fill="#7a9201" d="M705 53h-40v235h40z"/><path fill="#507ae9" d="M665 53h-43v83h43z"/><path fill="#be587a" d="M63 523h40V288H63z"/><path fill="#a47a0c" d="M103 523h43v-83h-43z"/><path fill="#7a63f3" d="M705 523h-40V288h40z"/><path fill="#a47a0c" d="M665 523h-43v-83h43z"/><g clip-path="url(#c)" transform="translate(913.067 -462.225)"><path fill="#fff" d="M-826.616 460.966h595.1V1053.7h-595.1z"/><path fill="url(#d)" d="M-383.69 779.452h67.36v90.1h-67.36z" transform="translate(0 -10)"/><path fill="url(#e)" d="M80.993 684.823h102.385v86.758H80.993z" transform="matrix(1 0 0 1.0632 -831.694 41.36)"/><path d="M-800.693 769.956h52.984v91.438h-52.98zm484.13 0h60v91.438h-60z"/><path fill="#bebec1" d="M-649.066 596.868h-27v46.35h27z"/><path d="M-676.066 596.868h-33v46.35h33z"/><path fill="#bebec1" d="M-709.066 596.868h-27v46.35h27z"/><path d="M-736.066 596.868h-33v46.35h33z"/><path fill="#bebec1" d="M-529.066 596.868h-27v46.35h27z"/><path d="M-556.066 596.868h-33v46.35h33z"/><path fill="#bebec1" d="M-589.066 596.868h-27v46.35h27z"/><path d="M-616.066 596.868h-33v46.35h33z"/><path fill="#bebec1" d="M-409.066 596.976h-27v46.24h27z"/><path d="M-436.066 596.976h-33v46.24h33z"/><path fill="#bebec1" d="M-469.066 596.976h-27v46.24h27z"/><path d="M-496.066 596.976h-33v46.24h33z"/><path fill="#bebec1" d="M-289.066 596.868h-27v46.35h27z"/><path d="M-316.066 596.868h-33v46.35h33z"/><path fill="#bebec1" d="M-349.066 596.868h-27v46.35h27z"/><path d="M-376.066 596.868h-33v46.35h33z"/><path fill="#00bfbf" d="M-701.067 643.217h86v86h-86z"/><path fill="#00bf00" d="M-615.067 643.217h86v86h-86z"/><path fill="#bf00bf" d="M-529.067 643.217h86v86h-86z"/><path fill="#bf0000" d="M-443.067 643.217h86v86h-86z"/><path fill="#0000bf" d="M-357.067 643.217h90.33v86h-90.33z"/><path fill="#bfbf00" d="M-787.067 643.217h86v86h-86z"/><path fill="url(#f)" d="M-648.335 781.78h79.2v86.757h-79.2z" transform="translate(0 -10)"/><path fill="url(#g)" d="M-569.9 782.225h91.6v86.744h-91.6z" transform="translate(0 -10)"/><path fill="url(#h)" d="M-479.664 781.567h96.18v87.62h-96.18z" transform="translate(0 -10)"/><path fill="#333" d="M-701.067 858.217h87.248v43.416h-87.24z"/><path d="M-787.067 858.217h86v43h-86z"/><path fill="#666" d="M-615.067 858.217h86v43h-86z"/><path fill="#999" d="M-529.067 858.217h86v43h-86z"/><path fill="#ccc" d="M-443.067 858.217h86v43h-86z"/><path fill="#fff" d="M-357.067 858.217h86v43h-86z"/><path fill="#bfbf00" d="M-719.444 938.217h168.377v75.774h-168.377zm212.377 0h168.377v75.774h-168.377z"/><path fill="#bf0000" d="M-551.067 938.217h44v75.774h-44z"/><path fill="#fff" d="M-398.067 901.216h116.49v43h-116.49z"/><path d="M-660.067 901.216h262v43h-262z"/><path d="M-636.067 944.635v-42.973" fill="none" stroke="#fff" stroke-width="4" stroke-linejoin="round"/><path fill="#fff" d="M-776.557 901.216h116.49v43h-116.49z"/><path d="M-398.067 557.216h116.49v43h-116.49z"/><path fill="#fff" d="M-660.067 557.216h262v43h-262z"/><path d="M-776.557 557.216h116.49v43h-116.49z"/><path d="M-637.132 600.385v-43" fill="none" stroke="#000" stroke-width="4" stroke-linejoin="round"/><path fill="#fff" d="M-711.067 485.827h364v71.39h-364z"/><path d="M-614.93 513.217h171.727v44H-614.93zm64.363 171.008v45h-257.5v43h257.5v45h43v-45h257.5v-43h-257.5v-45h-43z"/><path d="M-809.56 749.725v3h558.5v-3h-558.5z" fill="#fff"/><path d="M-530.567 684.225v133h3v-133h-3zm236.5 45v43h3v-43h-3zm-213 0v43h3v-43h-3zm42.6 0v43h3v-43h-3zm42.6 0v43h3v-43h-3zm85.2 0v43h3v-43h-3zm-42.6 0v43h3v-43h-3zm-174.8 0v43h3v-43h-3zm-213 0v43h3v-43h-3zm42.6 0v43h3v-43h-3zm42.6 0v43h3v-43h-3zm85.2 0v43h3v-43h-3zm-42.6 0v43h3v-43h-3z" fill="#fff"/></g></svg>