<svg xmlns="http://www.w3.org/2000/svg" xmlns:xlink="http://www.w3.org/1999/xlink" width="1000" height="1000" viewBox="0 0 1000 1000"><circle cx="500" cy="500" r="500" fill="#f7303c"/><path fill="#c62e3a" d="M989.208 601.25l-182.64-269.377-59.197 2.045-96.542-143.612-95.594 38.59-34.98-43.87-92.403 46.987-1.942 38.177 46.73 76.232L159.862 473.2 134.37 576.312l272.173 414.784c.223.044.444.078.667.12l31.277 4.894c256.572 32.01 497.754-138.485 550.72-394.86"/><g clip-path="url(#b)"><defs><path id="a" d="M603.07 737.063l-18.654 58.854-40.203-97.77-43.17 25.492-15.2-24.353-91.4 1.546-.71 189.51L526.3 999.29c90.577-4.737 176.538-34.142 249.76-82.73L634.083 696.97l-31.012 40.093z"/></defs><clipPath id="c"><use xlink:href="#a" overflow="visible"/></clipPath><defs><filter id="b" filterUnits="userSpaceOnUse" x="219.729" y="512.931" width="687.146" height="670.612"><feColorMatrix values="1 0 0 0 0 0 1 0 0 0 0 0 1 0 0 0 0 0 1 0"/></filter></defs><mask maskUnits="userSpaceOnUse" x="219.729" y="512.931" width="687.146" height="670.612" id="e"><g filter="url(#b)"><linearGradient id="d" gradientUnits="userSpaceOnUse" x1="177.5" y1="823.545" x2="179.045" y2="823.545" gradientTransform="rotate(-30 351384.077 -17603.17) scale(214.9664)"><stop offset="0"/><stop offset="1" stop-color="#666"/></linearGradient><path clip-path="url(#c)" fill="url(#d)" d="M219.73 772.71l449.95-259.78 237.195 410.834-449.95 259.78z"/></g></mask><linearGradient id="f" gradientUnits="userSpaceOnUse" x1="177.5" y1="823.545" x2="179.045" y2="823.545" gradientTransform="rotate(-30 351384.077 -17603.17) scale(214.9664)"><stop offset="0" stop-color="#c62e3a"/><stop offset="1" stop-color="#b82d39"/></linearGradient><path clip-path="url(#c)" mask="url(#e)" fill="url(#f)" d="M219.73 772.71l449.95-259.78 237.195 410.834-449.95 259.78z"/></g><path fill="#FFF" d="M389.852 364.197V337.32c2.907 0 5.758.027 8.607-.005 31.602-.366 63.205-.738 94.81-1.114 3.142-.035 6.286-.05 9.43-.165 1.432-.053 2.057.302 2.064 1.918.088 18.144.215 36.287.397 54.43.14 14.094.385 28.187.563 42.28.217 17.035.4 34.073.627 51.11.172 12.93.183 25.867.682 38.784.215 5.58 1.75 10.992 4.404 16.083 6.486 12.44 19.195 16.666 31.205 15.055 3.798-.51 7.65-1.706 11.105-3.365 5.695-2.738 9.536-7.48 12.22-13.22 3.04-6.492 3.79-13.346 3.695-20.386-.216-15.945-.415-31.89-.6-47.836-.33-28.68-.653-57.358-.966-86.038-.172-15.952-.3-31.904-.493-47.855-.014-1.308.307-1.803 1.705-1.818 35.775-.397 71.553-.835 107.328-1.26.597-.006 1.194.07 2.282.14 0 5.832-.05 11.56.01 17.284.183 16.904.426 33.8.62 50.703.245 21.558.488 43.117.694 64.675.175 18.14.18 36.285.484 54.422.188 11.124-.227 22.14-2.5 33.08-2.18 10.492-5.267 20.68-9.77 30.372-2.834 6.098-5.894 12.14-10.193 17.422-3.892 4.777-7.527 9.78-11.66 14.33-2.86 3.15-6.333 5.758-9.617 8.503-2.288 1.918-4.562 3.935-7.125 5.425-6.297 3.663-12.596 7.39-19.185 10.465-10.868 5.07-22.37 8.156-34.187 10.365-18.432 3.442-36.96 4.292-55.59 2.983-7.754-.545-15.452-1.948-23.155-3.105-9.09-1.367-17.79-4.136-26.41-7.3-8.75-3.21-17.046-7.32-24.732-12.485-5.472-3.678-10.39-8.18-15.546-12.326-.894-.72-.93-1.26-.068-2.31 5.404-6.57 10.567-13.338 14.397-20.985 3.417-6.822 7.117-13.55 9.875-20.64 2.542-6.526 4.255-13.416 5.878-20.253 4.24-17.857 5.14-36.025 3.897-54.267-.775-11.38-1.75-22.8-5.05-33.823-2.25-7.512-4.362-15.097-7.17-22.405-2.458-6.404-5.528-12.62-8.844-18.632-2.585-4.686-5.93-8.958-9.005-13.365-1.67-2.392-3.49-4.682-5.58-6.816 2.062 3.763 4.262 7.458 6.15 11.308 2.1 4.28 4.12 8.626 5.802 13.083 2.046 5.416 3.935 10.914 5.482 16.49 2.91 10.485 5.173 21.13 5.624 32.044.398 9.562.863 19.14.698 28.706-.19 11.09-1.158 22.165-4.23 32.906-2.118 7.41-4.135 14.883-6.883 22.063-2.525 6.603-5.687 13.007-9.105 19.203-2.683 4.864-5.966 9.446-9.378 13.848-4.167 5.377-8.562 10.603-13.207 15.566-3.532 3.776-7.487 7.187-11.473 10.496-3.97 3.298-8.036 6.546-12.376 9.313-5.788 3.69-11.786 7.088-17.872 10.276-10.892 5.707-22.543 9.442-34.477 12.23-19.166 4.473-38.627 6.12-58.27 5.11-15.113-.775-30.038-2.883-44.674-7-10.092-2.84-19.945-6.192-29.286-10.953-5.34-2.72-10.765-5.332-15.852-8.48-5.026-3.108-9.735-6.75-14.468-10.31-3.465-2.608-6.904-5.29-10.057-8.255-3.164-2.975-6.09-6.226-8.88-9.555-3.41-4.06-6.822-8.154-9.768-12.547-3.134-4.673-5.85-9.64-8.506-14.607-2.018-3.777-3.807-7.695-5.42-11.66-1.823-4.49-3.598-9.026-4.933-13.674-3.193-11.126-5.226-22.496-6.47-34.006-2.03-18.826-1.65-37.552 1.756-56.225 1.64-8.974 3.68-17.808 7.18-26.23 2.69-6.48 5.393-12.993 8.684-19.172 2.706-5.08 6.094-9.837 9.536-14.473 3.443-4.638 7.042-9.232 11.092-13.335 5.258-5.328 10.852-10.363 16.634-15.12 4.07-3.348 8.596-6.188 13.102-8.956 5.52-3.393 11.175-6.577 16.884-9.64a73.332 73.332 0 0 1 9.91-4.413c6.875-2.464 13.75-5.03 20.795-6.906 9.105-2.423 18.308-4.634 27.777-5.21 9.418-.57 18.84-1.32 28.267-1.48 6.818-.11 13.652.577 20.475.976 11.034.645 21.87 2.666 32.46 5.667 7.726 2.19 15.335 4.946 22.74 8.065 5.88 2.477 11.396 5.838 17.023 8.898 2.67 1.452 5.223 3.116 7.99 4.78M283.188 435.65c-14.22-.157-25.694 4.442-35.915 12.13-4.87 3.66-8.935 8.272-12.51 13.337-4.002 5.667-6.888 11.793-8.754 18.383-3.49 12.317-3.414 24.673.312 36.96 1.73 5.705 4.122 11.115 7.534 16.02 1.544 2.222 3.182 4.42 5.042 6.375 3.025 3.184 5.976 6.556 9.484 9.134 5.66 4.157 11.86 7.38 18.786 9.227 7.78 2.08 15.55 3 23.517 1.687 7.462-1.232 14.642-3.37 21.11-7.393 2.82-1.752 5.46-3.81 8.093-5.845 4.894-3.78 8.896-8.45 12.115-13.65 4.063-6.566 7.01-13.603 8.578-21.31 2.168-10.662 1.663-21.13-1.24-31.45-1.977-7.037-5.284-13.54-9.692-19.49-6.46-8.724-14.57-15.42-24.494-19.592-7.31-3.07-14.996-5.246-21.967-4.523M810.34 647.252c-6.44 0-12.66-.066-18.874.01-30.03.375-60.06.786-90.09 1.19-2.825.04-2.822.065-2.86-2.72-.564-42.932-1.13-85.863-1.692-128.796-.392-29.787-.833-59.572-1.156-89.36-.334-30.952-.555-61.905-.82-92.858-.005-.397.05-.794.086-1.373l111.635-1.475c1.254 105.102 2.507 210.012 3.77 315.382M536.683 226.415c-.417 36.352-29.37 64.002-64.1 63.882-36.535-.127-64.618-29.672-63.985-65.015.64-35.753 29.217-63.082 63.874-63.058 36.897.024 64.15 29.6 64.21 64.19m60.25-64.192c-26.643-.018-49.678 16.138-59.205 39.85 6.38 9.475 10.197 21.424 10.197 34.425 0 8.757-1.732 17.038-4.81 24.41 11.238 17.538 30.897 29.31 53.923 29.39 34.733.12 63.686-27.53 64.103-63.883-.06-34.592-27.312-64.167-64.21-64.192zM397.147 891.582l-2.706-190.747 91.4-1.546.013 28.6-58.17.967.58 48.895 43.87-.773.385 28.602-43.87.58 1.546 84.647-33.046.77zM634.083 696.97l3.286 190.36-28.605.193-2.754-148.616h-.34l-26.86 149.195-16.234.387-31.742-148.643-.773.024 2.755 149.004-28.41.387-3.168-190.553 42.976-.56L569.15 810.48h.53l21.5-112.74 42.903-.772z"/></svg>