<svg enable-background="new 0 0 1000 1000" viewBox="0 0 1000 1000" xmlns="http://www.w3.org/2000/svg">
    <path d="m4914.9 3222.4c-32.7-9.6-96.1-48.1-140.3-86.5-171.1-146.1-215.3-344.1-124.9-576.6 7.7-21.1-7.7-26.9-65.4-26.9-115.3 0-534.3-55.7-736.2-98-349.8-71.1-593.9-173-709.3-294.1-53.8-55.7-65.4-82.7-65.4-149.9 0-46.1 13.5-109.6 30.7-142.2l30.8-59.6-134.6-92.3c-278.7-190.3-647.7-586.2-801.5-859.2-44.2-76.9-61.5-92.3-107.6-92.3-142.2 0-336.4 190.3-626.6 618.9-280.6 413.3-422.9 593.9-492.1 622.8-82.6 34.6-190.3 32.7-517-9.6-272.9-34.6-355.6-59.6-355.6-105.7 0-15.4 51.9-76.9 117.3-138.4 340.3-328.7 465.2-622.8 680.5-1612.6 80.7-369 161.5-642 240.3-797.7 173-342.1 434.4-538.2 811.1-601.6l128.8-23.1 61.5-115.3c713.1-1351.3 2550.6-1962.5 4178.6-1393.6 371 130.7 734.3 338.3 1043.7 599.7 146.1 124.9 349.8 342.1 419 449.8 21.2 32.7 65.4 51.9 167.2 75 1180.2 267.1 2008.7 1216.7 1949.1 2235.4-28.8 492.1-242.2 959.1-547.8 1205.2-501.7 401.7-1120.6 297.9-1572.3-263.3-65.4-80.7-126.9-161.5-138.4-180.7-17.3-30.8-36.5-19.2-171.1 109.6-82.6 78.8-221 194.1-307.5 257.6l-157.6 113.4 28.8 51.9c15.4 30.8 26.9 92.3 26.9 140.3 0 159.5-157.6 280.6-499.7 382.5-269.1 80.7-786.2 167.2-1003.3 167.2-82.6 0-82.6 0-42.3 115.3 57.7 165.3 0 361.4-146.1 484.4-119.2 101.8-292.2 138.3-451.7 90.2zm4061.4-1679.9c242.2-130.7 434.4-426.7 507.5-774.6 113.3-545.9-78.9-1099.4-522.9-1506.9-242.2-224.9-490.1-330.6-684.3-292.2-109.6 19.2-107.7 15.4-55.8 248 48.1 213.3 48.1 651.6 1.9 874.6-46.1 215.3-132.6 457.5-221 624.7l-73 134.5 34.6 101.9c80.7 234.5 236.4 459.4 388.3 555.5 132.6 82.6 203.8 101.9 369 96.1 126.9-5.8 173-15.5 255.7-61.6z" transform="matrix(.1 0 0 -.1 0 511)" fill="#e0218a"/>
</svg>
